<?xml version="1.0" encoding="UTF-8"?>
<!DOCTYPE svg PUBLIC "-//W3C//DTD SVG 1.1//EN" "http://www.w3.org/Graphics/SVG/1.1/DTD/svg11.dtd">
<!-- Creator: CorelDRAW 2018 (64-Bit) -->
<svg xmlns="http://www.w3.org/2000/svg" xml:space="preserve" width="512px" height="512px" version="1.1" style="shape-rendering:geometricPrecision; text-rendering:geometricPrecision; image-rendering:optimizeQuality; fill-rule:evenodd; clip-rule:evenodd"
viewBox="0 0 5120 5120"
 xmlns:xlink="http://www.w3.org/1999/xlink">
 <defs>
  <style type="text/css">
   <![CDATA[
    .fil0 {fill:#FEFEFE}
   ]]>
  </style>
   <clipPath id="id0">
    <rect width="5120" height="5120"/>
   </clipPath>
 </defs>
 <g id="Слой_x0020_1">
  <metadata id="CorelCorpID_0Corel-Layer"/>
  <g style="clip-path:url(#id0)">
   <image id="High_definition-._quality-512.png" x="0" y="0" width="5120" height="5120" xlink:href="hq_Images\hq_ImgID1.png"/>
  </g>
  <g id="_2222761833248">
   <path class="fil0" d="M220 2640c0,-278.26 0.95,-382.26 67.98,-652.02 35.01,-140.93 83.43,-292.11 148.61,-421.39 34,-67.42 60.67,-119.27 96.49,-183.51 375.81,-673.93 1167.57,-1163.08 1966.92,-1163.08 414.66,0 722.25,57.5 1053.46,216.54 509.37,244.57 885.53,620.82 1130,1130 290.52,605.05 290.52,1381.86 0,1986.92 -78.36,163.2 -207.11,374.19 -326.41,513.59 -419.26,489.93 -1056.8,832.95 -1717.05,832.95 -278.26,0 -382.26,-0.95 -652.02,-67.98 -242.56,-60.27 -388.4,-124.37 -604.9,-245.1 -64.37,-35.9 -112.24,-68.82 -171.2,-108.79 -111,-75.26 -215.63,-166.87 -309.38,-260.63 -93.15,-93.15 -180.11,-192.75 -256.59,-303.42 -39.58,-57.26 -75.82,-108.94 -109.35,-170.64 -120.13,-221.03 -184.65,-353.46 -246.58,-603.42 -37.25,-150.39 -69.98,-313.53 -69.98,-500.02zm2256.58 -2640l181.49 0c176.29,6.24 352.77,30.72 527.5,74.43 179.32,44.87 302.84,96.73 457.32,162.68 289.84,123.74 595.32,357.74 804.69,595.31 29.37,33.33 47.04,44.9 76.79,83.21 25.6,32.99 45.74,55.79 71.41,88.59 327.06,417.8 508.77,946.84 524.22,1486.1l0 150.72c-5.3,182.72 -29.82,365.53 -74.43,544.53 -135.18,542.47 -405.02,936.37 -797.95,1302.05 -106.62,99.22 -285.98,218.6 -408.17,291.83 -64.95,38.91 -128.19,75.16 -203.67,106.33 -435.65,179.93 -634.57,234.22 -1145.78,234.22 -508.4,0 -1033.8,-197.76 -1404.24,-465.76 -35.12,-25.41 -59.52,-40.34 -92.65,-67.35l-167.33 -142.67c-35.38,-27.33 -47.94,-41.34 -78.28,-71.72 -200.9,-201.16 -386.69,-460.77 -514.22,-735.78 -170.38,-367.44 -233.28,-684.09 -233.28,-1146.72 0,-209.83 36.06,-379.85 74.15,-555.85 53.55,-247.4 156.69,-448.04 269.13,-660.86l122.48 -187.53c113.78,-157.27 108.32,-135.56 211.29,-258.71 28.89,-34.54 38.28,-47.42 70.43,-79.57 255.33,-255.32 617.07,-488.51 956.17,-603.84 251.48,-85.52 511.26,-134.42 772.93,-143.64z"/>
   <path class="fil0" d="M1280 1280l2560 0 0 2560 -2560 0 0 -2560zm-220 -190l0 2940c0,23.04 6.96,30 30,30l2940 0c23.04,0 30,-6.96 30,-30l0 -2940c0,-23.04 -6.96,-30 -30,-30l-2940 0c-23.04,0 -30,6.96 -30,30z"/>
   <path class="fil0" d="M2750 2560c0,-191.77 133.48,-317.57 312.14,-326.95 311.52,-16.34 427.19,413.38 197.86,566.95 -15.34,-29 -25.83,-55.13 -44.22,-85.78 -19.64,-32.72 -36.72,-55.31 -45.78,-94.22 -65.79,15.33 -142.82,86.68 -200,100 27.28,51.56 53.2,99.34 80,150 -155.97,-36.34 -300,-108.99 -300,-310zm-220 -40c0,249.14 101.52,411.75 319.82,520.18 116.59,57.92 195.76,52.72 319.93,37.98l130.25 241.84c73.04,-17.02 119.84,-73.66 190,-90 -3.34,-40.18 -8.06,-35.94 -25.52,-64.47l-94.48 -175.53c166.27,-111.34 230,-265.79 230,-470 0,-508.5 -754.31,-720.71 -1010.12,-210.11 -25.46,50.82 -59.88,134.43 -59.88,210.11z"/>
   <polygon class="fil0" points="1490,3100 1710,3100 1710,2670 2130,2670 2130,3100 2350,3100 2350,2020 2130,2020 2130,2450 1710,2450 1710,2020 1490,2020 "/>
  </g>
 </g>
</svg>
