<?xml version="1.0" encoding="UTF-8"?>
<!DOCTYPE svg PUBLIC "-//W3C//DTD SVG 1.1//EN" "http://www.w3.org/Graphics/SVG/1.1/DTD/svg11.dtd">
<!-- Creator: CorelDRAW 2018 (64-Bit) -->
<svg xmlns="http://www.w3.org/2000/svg" xml:space="preserve" width="512px" height="512px" version="1.1" style="shape-rendering:geometricPrecision; text-rendering:geometricPrecision; image-rendering:optimizeQuality; fill-rule:evenodd; clip-rule:evenodd"
viewBox="0 0 5120 5120"
 xmlns:xlink="http://www.w3.org/1999/xlink">
 <defs>
  <style type="text/css">
   <![CDATA[
    .fil0 {fill:white}
   ]]>
  </style>
   <clipPath id="id0">
    <rect width="5120" height="5120"/>
   </clipPath>
 </defs>
 <g id="Слой_x0020_1">
  <metadata id="CorelCorpID_0Corel-Layer"/>
  <g style="clip-path:url(#id0)">
   <image id="gismapmode_1078027.png" x="0" y="0" width="5120" height="5120" xlink:href="posts_Images\posts_ImgID1.png"/>
  </g>
  <path class="fil0" d="M1160 3620c65.4,-15.24 107.72,-46.75 168.6,-71.4 54.87,-22.22 112.54,-52.61 171.27,-78.73l251.57 -118.57c93.05,-38.98 72.23,-24.25 258.43,58.83 283.8,126.63 464.97,263.09 748.93,158.67 56.52,-20.79 118.17,-55.32 172.6,-77.4l345.43 -155.75c43,-20.43 85.67,10.06 166.49,51.03l340.9 159.1c63.73,26.3 110.98,59.12 175.78,74.22 -10.67,9.27 3.27,-0.11 -17.24,12.76l-489.45 230.55c-234.56,118.33 -546.44,246.78 -770.09,359.92 -157.13,79.48 -205.13,21.53 -409.76,-76.69 -33.78,-16.22 -56.68,-22.95 -90.25,-39.75 -59.16,-29.63 -110.81,-50.3 -169.9,-80.11l-339.9 -160.09c-59.2,-29.88 -110.65,-50.08 -170,-80l-260.2 -119.8c-16.51,-8.22 -23.16,-11.23 -40.14,-19.85l-43.07 -26.94zm10 -1070l583.04 -267.79c48.45,-21.72 34.92,-24.97 83.48,0.44 146.51,76.68 347.24,159.68 503.31,237.51 224.31,111.86 408.25,21.51 603.51,-76.82 57.22,-28.81 106.24,-47.85 163.35,-76.66 59.06,-29.79 112.07,-49.69 170.12,-80.4 50.63,-26.8 38.65,-33.78 159.98,26.93 30.24,15.14 49.12,25.56 79.74,40.25l433.47 216.54 -603.41 276.59c-33.03,16.68 -57.17,29.53 -87.99,42.01 -62.32,25.23 -111.79,56.43 -170,80l-251.81 118.19c-399.08,199.82 -252.67,105.49 -798.19,-115.39 -65.44,-26.5 -111.75,-56.31 -177.2,-82.8l-341.55 -158.45c-26.78,-13.19 -52.92,-27.11 -79.7,-40.3 -29.38,-14.47 -60.92,-25.23 -90.3,-39.7 -44.65,-22 -133.8,-69.42 -179.85,-80.15l0 -20zm-750 -1070c0,197.15 210.72,239.28 370.04,319.96l353.17 166.83c30.69,15.36 96.63,46.18 126.79,53.21 -29.84,25.93 -195.53,98 -228.6,111.4 -40.41,16.37 -70.34,33.39 -117.17,52.83 -39.39,16.35 -79.09,33.65 -117.67,52.33 -41.09,19.88 -78.99,34.59 -116.67,53.33 -37.82,18.81 -78.79,32.45 -116.88,53.12 -177.47,96.27 -172.63,320.61 -0.01,413.99l717 323c-18.8,25.66 -51.34,31.24 -109.85,60.15 -40.83,20.16 -79.74,34.36 -123.47,56.53l-485.43 224.57c-154.42,64.46 -254.89,301.69 18.7,438.8 44.48,22.29 88.74,40.23 136.6,63.4l480 220c150.58,72.86 328.7,143.02 480.06,219.94l411.99 188.01c71.45,28.94 209.93,104.33 279.12,120.88 293.17,70.11 379.39,-31.96 623.68,-130.88l205.14 -94.86c27.06,-13.02 42.96,-17.2 70.18,-29.82l1231.95 -568.04c181.8,-72.81 230.61,-262.31 133.1,-370.45 -26.72,-29.64 -65.45,-45.26 -107.53,-62.47 -81.23,-33.22 -158.29,-75.76 -237.52,-112.47 -35.59,-16.49 -443.07,-191.01 -466.72,-223.29l353.39 -156.61c44.37,-22.54 79.3,-34.43 123.39,-56.61 42.26,-21.26 73.94,-32.66 116.66,-53.34 40.69,-19.69 80.66,-34.54 116.96,-53.04 128.76,-65.6 179.31,-216.15 101.53,-332.33 -58.28,-87.06 -127.22,-95 -205.32,-134.68l-586.61 -283.39c26.79,-6.24 85.06,-32.9 113.46,-46.53l579.39 -270.61c144.43,-68.02 229.43,-302.3 -26.14,-429.57l-939.6 -430.4c-26.82,-11.47 -43.76,-22.28 -67.24,-32.76l-673.31 -306.69c-149.76,-72.47 -296.03,-107.28 -465.34,-42.22l-1361.11 618.89c-116.48,57.93 -460.88,184.77 -532.83,267.17 -24.48,28.04 -57.28,94.95 -57.28,142.72z"/>
 </g>
</svg>
