<?xml version="1.0" encoding="UTF-8"?>
<!DOCTYPE svg PUBLIC "-//W3C//DTD SVG 1.1//EN" "http://www.w3.org/Graphics/SVG/1.1/DTD/svg11.dtd">
<!-- Creator: CorelDRAW 2018 (64-Bit) -->
<svg xmlns="http://www.w3.org/2000/svg" xml:space="preserve" width="618px" height="592px" version="1.1" style="shape-rendering:geometricPrecision; text-rendering:geometricPrecision; image-rendering:optimizeQuality; fill-rule:evenodd; clip-rule:evenodd"
viewBox="0 0 6180 5919.91"
 xmlns:xlink="http://www.w3.org/1999/xlink">
 <defs>
  <style type="text/css">
   <![CDATA[
    .fil0 {fill:white}
   ]]>
  </style>
   <clipPath id="id0">
    <rect x="-2910.02" y="-190.05" width="12000.04" height="6300.02"/>
   </clipPath>
 </defs>
 <g id="Слой_x0020_1">
  <metadata id="CorelCorpID_0Corel-Layer"/>
  <g style="clip-path:url(#id0)">
   <image id="_535743.png" x="-2910.02" y="-190.05" width="12000.04" height="6300.02" xlink:href="premium_Images\premium_ImgID1.png"/>
  </g>
  <g id="_2222767502848">
   <path class="fil0" d="M1089.99 2999.96c-13.26,-68.53 26.96,-360.43 47.9,-452.11 81.08,-355.04 188.35,-565.68 401.91,-848.09l247.55 -252.45 210.58 -159.42c28.55,-17.98 53.7,-31.76 81.49,-48.51 52.67,-31.76 104.28,-56.07 163.89,-86.12 83.35,-42.01 278.38,-111.68 369.17,-130.83 312.9,-65.97 570.41,-87.49 889.63,-14.58 69.77,15.93 139.1,28.37 197.96,52.03 60.3,24.24 121.09,40.46 182.86,67.14 214.65,92.72 432.11,239.11 599.78,400.23 206.33,198.27 395.85,491.79 485.95,764.05 49.83,150.54 76.27,236.47 99.8,400.21 31.61,220.11 23.98,460.18 -26.35,680.55 -15.93,69.78 -28.37,139.11 -52.03,197.97 -23.59,58.67 -38.62,125.86 -66.57,183.43l-127.83 242.17c-56.72,94.32 -136.58,211.39 -213.25,286.75 -28.74,28.25 -35.11,41.6 -59.99,70.01 -20.69,23.63 -39.13,39.8 -62.43,57.57 -27.89,21.28 -41.47,36.51 -67.36,62.65 -133.99,135.21 -453.24,306.54 -633.98,366.02 -151.48,49.85 -235.07,76.05 -400.22,99.78 -253.7,36.45 -645.75,15.19 -878.52,-78.37 -206.49,-83.01 -211.45,-65.62 -425.6,-194.4 -30.81,-18.53 -51.67,-29 -80.18,-49.83 -51.25,-37.44 -96.7,-69.61 -144.35,-105.65 -106.57,-80.58 -286.55,-277.81 -361.79,-388.22 -19.02,-27.92 -32.1,-41.36 -50.08,-69.91 -160.71,-255.2 -263.14,-522.61 -306.39,-823.63 -6.33,-44.08 -11.58,-62.14 -11.92,-108.07 -0.14,-19.81 1.38,-41.35 0.92,-60.92 -1.01,-43.46 -6.51,-38.58 -10.55,-59.45zm-470 -1830.01c0,84.19 27.08,202.76 37.1,282.9l92.7 727.93c-0.93,35.74 -78.04,108.29 -107.37,141.6l-199.88 210.12c-28.3,27.97 -60.43,56.37 -84.04,85.97 -44.7,56.03 -287.55,295.26 -318.51,341.49 55.57,82.98 171.94,175.05 237.05,252.95l195.9 214.1c38.62,46.2 270.62,263.81 276.68,303.98 3.18,21.05 -14.97,127.76 -17.8,150.8 -12.72,103.66 -22.49,190.79 -37.5,292.5l-54.88 435.12c-6.21,44.41 -19.45,103.72 -19.45,150.55 48.12,0 91.36,13.05 138.77,21.23 42.46,7.33 88.01,20.04 132.53,27.47l691.59 128.42c78.79,14.14 67.7,13.6 97.15,72.85 69.71,140.27 160.48,278.79 229.97,420.03 19.13,38.9 36.59,62.54 56.74,103.26 40.21,81.25 156.13,253.23 173.26,326.75 94.08,-7.83 886.22,-435.27 951.27,-436.99 26.56,-0.71 196.76,85.72 232.14,103.58 43.49,21.95 73.38,34.38 116.46,53.54l473.42 226.58c38.49,17.81 88.45,50.1 126.71,53.29 6.26,-23.45 38.55,-79.26 53.29,-106.71 104.9,-195.33 325.02,-573.01 406.68,-743.33 49.06,-102.32 59.27,-59.64 229.94,-100.07 107.56,-25.48 767.77,-129.99 830.1,-159.9 0,-84.18 -27.08,-202.75 -37.1,-282.9 -13.25,-105.88 -22.21,-191.91 -34.63,-295.37 -10.85,-90.48 -27.76,-191.59 -39.11,-290.89 -23.32,-203.92 -46.84,-124.87 53.26,-238.42 17.54,-19.88 17.63,-24.94 35.15,-44.84 13.72,-15.58 24.87,-25.13 39.92,-40.09 30.58,-30.41 55.33,-53.74 85.21,-84.79l319.73 -340.28c17.51,-19.88 17.63,-24.96 35.15,-44.84 13.71,-15.58 24.86,-25.13 39.91,-40.09 30.17,-29.99 59.88,-53.69 82.51,-87.49 -34.91,-52.13 -111.62,-126.64 -157.5,-172.5l-479.99 -510.01c-107.41,-106.66 -70.96,-86.72 -54.29,-239.27 13.75,-125.75 111.78,-800.15 111.78,-878.23 -91.65,0 -180.24,-33.49 -271.3,-48.7 -234.59,-39.17 -456.99,-93.07 -691.86,-128.14 -87.72,-13.1 -87.71,-46.19 -153.38,-176.62 -20.48,-40.67 -35.61,-60.64 -56.72,-103.29 -72,-145.52 -161.48,-280.96 -233.49,-426.5 -34.98,-70.69 -95.64,-141.14 -113.26,-216.75 -43.98,3.66 -84.65,33.71 -121.4,48.59 -44.46,18.01 -72.47,33.34 -115.26,54.74l-590.02 279.99c-25.72,13.04 -104.18,52.18 -124.87,53.39 -29.99,1.75 -194.65,-84.52 -231.86,-103.3 -43.49,-21.96 -73.38,-34.39 -116.46,-53.54l-600.13 -279.87c-18.04,67.55 -77.38,147.34 -109.88,210.12 -18.78,36.26 -35.74,61.79 -56.66,103.34l-176.72 323.28c-36.49,73.75 -82.62,141.84 -116.67,213.33 -24.97,52.42 -18.06,60.9 -88.24,71.76 -45.67,7.07 -96.4,17.55 -141.73,28.27 -105.55,24.97 -768.81,130.49 -830.11,159.9z"/>
   <path class="fil0" d="M3060 3709.96c-32.72,-21.91 -75.33,-64.34 -108.58,-91.42 -19.51,-15.89 -34.59,-27.68 -55.78,-44.22 -157.04,-122.61 -341.44,-292.91 -501.39,-418.62l-224.26 -185.74c34.19,-51.04 208.86,-259.15 240.01,-280 50.35,26.64 357.71,297.38 444.22,365.78l155.78 124.22c32.03,-47.84 65.17,-83.31 101.31,-128.69 37.01,-46.46 70.77,-86.37 107.39,-132.61l583.52 -716.49c23.08,-26.63 28.87,-42.86 57.78,-62.22 58.64,39.27 227.92,206.1 280,220 -11.95,51.33 -225.67,296.17 -262.24,337.76l-613.38 756.63c-69.83,92.91 -138.03,156.54 -204.38,255.62zm-1590.01 -850c0,310.37 12.12,516.79 156.6,803.41 70.19,139.25 159.92,279.77 265.78,394.22 17.52,18.94 31.56,31.31 50.13,49.87 87.22,87.22 113.04,103.25 206.08,173.92 17.61,13.37 35.45,28.17 51.84,38.16 218.42,133.11 509.14,260.42 789.58,260.42 310.38,0 516.79,-12.12 803.41,-156.59 48.98,-24.68 77.96,-37.9 122.51,-67.49 216.66,-143.97 232.8,-147.67 411.75,-348.26 18.66,-20.91 26.26,-24.74 42.47,-47.53 14.86,-20.89 24.72,-36.91 41.28,-58.71 158.69,-208.95 298.59,-576.5 298.59,-841.42 0,-310.38 -12.12,-516.79 -156.6,-803.41 -24.68,-48.98 -37.89,-77.96 -67.49,-122.51 -16.45,-24.75 -18.21,-32.09 -32.68,-57.32 -13.74,-23.94 -25.7,-36.95 -41.82,-58.18 -86.78,-114.27 -203.62,-255.04 -321.28,-338.72 -118.36,-84.17 -157.83,-113.26 -296.73,-183.28 -456.36,-230.03 -1110.26,-210.95 -1529.33,67.5 -107.77,71.61 -165.14,99.72 -271.71,198.29 -156.19,144.47 -270.1,304.4 -365.78,494.22 -69.34,137.55 -156.6,403.04 -156.6,603.41z"/>
  </g>
 </g>
</svg>
