<?xml version="1.0" encoding="UTF-8"?>
<!DOCTYPE svg PUBLIC "-//W3C//DTD SVG 1.1//EN" "http://www.w3.org/Graphics/SVG/1.1/DTD/svg11.dtd">
<!-- Creator: CorelDRAW 2018 (64-Bit) -->
<svg xmlns="http://www.w3.org/2000/svg" xml:space="preserve" width="800px" height="350px" version="1.1" style="shape-rendering:geometricPrecision; text-rendering:geometricPrecision; image-rendering:optimizeQuality; fill-rule:evenodd; clip-rule:evenodd"
viewBox="0 0 8000 3499.99"
 xmlns:xlink="http://www.w3.org/1999/xlink">
 <defs>
  <style type="text/css">
   <![CDATA[
    .fil1 {fill:silver}
    .fil0 {fill:#FCFCFD}
   ]]>
  </style>
   <clipPath id="id0">
    <rect x="-4260" y="-2305" width="16520" height="8110"/>
   </clipPath>
 </defs>
 <g id="Слой_x0020_1">
  <metadata id="CorelCorpID_0Corel-Layer"/>
  <g style="clip-path:url(#id0)">
   <image id="a_uiTdoMbjM.png" x="-4260" y="-2305" width="16520" height="8110" xlink:href="storm_Images\storm_ImgID1.png"/>
  </g>
  <g id="_1864170238384">
   <path class="fil0" d="M1345.17 1331.59l4.78 365 8.46 9.78 10.38 9.94 10.11 9.67 9.23 19.02 691.87 0 0 290 -750 0c0,62.17 -16.92,85.1 38.98,91.02l671.29 -0.75c127.31,1.18 130.8,-18.1 129.81,-140.19 -1.38,-170.16 38.72,-319.3 -69.75,-330.41l-680.33 0.33 -1.21 -280c12.81,-8.56 0.81,-4 22.87,-8.99 19.78,-4.47 -3.65,-0.55 17.95,-2.64l703.83 0.42 -0.31 -72.31 -653.13 0.11c-90.31,-0.14 -126.9,-17.38 -164.83,40z"/>
   <path class="fil0" d="M3480 1705c0,-309.92 231.52,-540 550,-540 270.78,0 510,241.06 510,540 0,519.86 -742.34,745.21 -1006.82,216.81 -28.99,-57.92 -53.18,-134.5 -53.18,-216.81zm-70 -10c0,181.76 84.36,329.54 177.41,422.59 382.12,382.11 1022.59,97.87 1022.59,-422.59 0,-437.41 -460.4,-726.42 -846.81,-546.81 -210.21,97.7 -353.19,308.31 -353.19,546.81z"/>
   <path class="fil0" d="M4790 1375l750 0c0,349.03 46.58,290.01 -180,290l-517.65 2.34c-19.81,5.26 -52.35,28.98 -52.35,57.66l0 400 80 0 0 -370c144.5,0 253.85,-10 400,-10l307.65 -2.35c19.81,-5.26 52.35,-28.97 52.35,-57.65l0 -340c0,-24.08 -35.92,-60 -60,-60l-780 0 0 90z"/>
   <path class="fil0" d="M5949.01 1375l14.71 -6.54c41.58,-10.57 278.31,-4.53 326.29,-4.7 79.19,-0.28 105.47,-13.91 149.63,31.7 32.29,33.37 56.84,58.03 89.36,90.55 111.75,111.8 96.51,59.53 96.5,268.99 0,117.78 1.45,236.5 -0.33,354.17l74.83 -1.04 0.42 -483.56c0.77,-114.07 -56.16,-128.61 -202.9,-277.1 -85.74,-86.76 -79.23,-62.47 -267.52,-62.47 -480.21,0 -355.06,-129.47 -370.59,760.59 -1.66,95.24 0.43,79.41 90.59,79.41l-0.99 -750z"/>
   <path class="fil0" d="M4080 1285c91.52,0 194.91,77.43 242.77,127.23 135.92,141.44 145.71,375.48 17.47,543.01 -34.71,45.35 -119.47,123.87 -190.24,129.76l200 -470 -420 0c21.56,-92.56 133.84,-260.64 150,-330zm-220 380l420 0c-55.22,104.35 -143.06,363.49 -210,490 147.77,-3.3 315.19,-139.85 368.77,-281.23 70.42,-185.79 43.72,-344.37 -86.18,-491.37 -63.61,-71.97 -199.72,-147.4 -302.59,-147.4 -17.41,74.71 -169.64,342.6 -190,430z"/>
   <path class="fil0" d="M3680 1775l410 0c-2.95,35.46 -73.08,197.89 -95.66,254.34 -13.89,34.73 -26.92,53.82 -34.34,85.66 -181.23,-15.08 -370,-203.48 -370,-400 0,-114.38 22.91,-204.9 92.78,-287.22 40.62,-47.86 132.36,-126.55 207.22,-132.78 -10.46,44.92 -204.69,416.22 -210,480zm310 380l127.19 -312.81c14.88,-34.44 34.47,-71.38 42.81,-107.19 -93.33,0 -186.68,-0.14 -280,0 -183.35,0.28 -143.88,15.76 -94.22,-104.22l184.22 -395.78c-351,0 -590.43,484.75 -292.59,782.59 70.94,70.94 174.61,137.41 312.59,137.41z"/>
   <polygon class="fil0" points="2366.6,1363.79 3248.9,1363.76 3248.78,1291.87 2366.48,1291.58 "/>
   <polygon class="fil0" points="2800,2125 2880,2125 2880,1655 2800,1655 "/>
   <polygon class="fil0" points="6240,2125 6320,2125 6320,1655 6240,1655 "/>
   <path class="fil1" d="M1345.17 1331.59c-20.61,26.04 -6.75,-5.75 -14.45,33.72l-1.47 300.38c7.35,39.14 -11.13,23.22 20.7,30.9 -12.99,24.03 -16.65,21.55 8.46,9.78 -11.31,25.05 -14.47,21.43 10.38,9.94 -11.84,25.16 -14.85,21.58 10.11,9.67 -11.26,24.05 -16.51,19.02 9.23,19.02l-9.23 -19.02 -10.11 -9.67 -10.38 -9.94 -8.46 -9.78 -4.78 -365c37.93,-57.38 74.52,-40.14 164.83,-40l653.13 -0.11 0.31 72.31 -703.83 -0.42c-21.6,2.09 1.83,-1.83 -17.95,2.64 -22.06,4.99 -10.06,0.43 -22.87,8.99l756.21 0 -5 -90 -800 0c-20.55,30.69 -24.32,13.47 -24.83,46.59z"/>
   <path class="fil0" d="M5406.59 1888.52c1.58,1.62 4.14,1.83 4.77,4.84 0.63,3.05 3.88,3.9 4.74,4.97l33.09 47.48c16.07,23.07 24.38,37 40.84,59.55 16.48,22.56 23.75,34.17 40.6,58.45l52.89 64.59c13.23,-12.99 4.51,-4.29 21.03,-18.29l26.52 -25.11c-38.87,-79.57 -131.07,-170.44 -157.94,-243.41l-61.02 39.46c-1.46,1.71 -3.62,5.03 -5.52,7.47z"/>
   <path class="fil1" d="M2366.48 1291.58l882.3 0.29 0.12 71.89 -882.3 0.03 -0.12 -72.21zm-6.48 83.42l900 0 0 -90 -900 0 0 90z"/>
   <path class="fil1" d="M6700 2108.13l-74.83 1.04c1.78,-117.67 0.33,-236.39 0.33,-354.17 0.01,-209.46 15.25,-157.19 -96.5,-268.99 -32.52,-32.52 -57.07,-57.18 -89.36,-90.55 -44.16,-45.61 -70.44,-31.98 -149.63,-31.7 -47.98,0.17 -284.71,-5.87 -326.29,4.7l-14.71 6.54c123.55,0 247.68,1.17 371.16,-0.17 119.73,-1.3 81.84,-1.07 232.34,147.65 82.79,81.81 57.49,69.71 57.49,312.52 0,63.29 0.68,126.96 -0.22,190.22 -1.54,110.04 -2.21,99.78 90.22,99.78l0 -16.87z"/>
   <path class="fil1" d="M5449.19 1945.81l-33.09 -47.48c-0.86,-1.07 -4.11,-1.92 -4.74,-4.97 -0.63,-3.01 -3.19,-3.22 -4.77,-4.84 1.9,-2.44 4.06,-5.76 5.52,-7.47l61.02 -39.46c26.87,72.97 119.07,163.84 157.94,243.41l-26.52 25.11c-16.52,14 -7.8,5.3 -21.03,18.29l-52.89 -64.59c-16.85,-24.28 -24.12,-35.89 -40.6,-58.45 -16.46,-22.55 -24.77,-36.48 -40.84,-59.55zm-49.19 -70.81c13.99,54.69 134.47,198.81 170,260 33.02,-8.45 44.87,-22.81 70,-40 -10.01,-42.25 -132.39,-209.44 -170,-260 -30.96,7.89 -43.33,20.42 -70,40z"/>
  </g>
 </g>
</svg>
